# Blender v2.75 (sub 0) OBJ File: 'robot.blend'
# www.blender.org
v 20.089159 37.165100 9.946194
v 20.089159 86.966400 9.946185
v -20.175741 86.966400 9.946189
v -20.175741 37.165100 9.946198
v 20.089159 37.165100 -10.053806
v -20.175741 37.165100 -10.053802
v -20.175741 86.966400 -10.053811
v 20.089159 86.966400 -10.053815
v 10.200057 87.094604 -8.133314
v -9.799943 87.094604 -8.133312
v -9.799943 107.094604 -8.133315
v 10.200057 107.094604 -8.133317
v 10.200059 87.094604 8.820286
v 10.200059 107.094604 8.820283
v -9.799941 107.094604 8.820285
v -9.799941 87.094604 8.820288
v -4.728341 0.000002 9.927601
v -4.728341 37.085999 9.927595
v -14.728341 37.085999 9.927596
v -14.728341 0.000002 9.927602
v -4.728343 -0.000002 -10.072399
v -14.728343 -0.000002 -10.072398
v -14.728343 37.085999 -10.072404
v -4.728343 37.085999 -10.072405
v 14.345859 0.000002 9.927600
v 14.345859 37.085999 9.927593
v 4.345859 37.085999 9.927594
v 4.345859 0.000002 9.927601
v 14.345857 -0.000002 -10.072400
v 4.345857 -0.000002 -10.072399
v 4.345857 37.085999 -10.072406
v 14.345857 37.085999 -10.072407
v 30.433458 44.294601 9.927591
v 30.433458 81.380699 9.927585
v 20.433458 81.380699 9.927586
v 20.433458 44.294601 9.927592
v 30.433458 44.294601 -10.072409
v 20.433458 44.294601 -10.072408
v 20.433458 81.380699 -10.072414
v 30.433458 81.380699 -10.072415
v -20.207741 44.294601 9.927595
v -20.207741 81.380699 9.927589
v -30.207741 81.380699 9.927590
v -30.207741 44.294601 9.927596
v -20.207741 44.294601 -10.072405
v -30.207741 44.294601 -10.072404
v -30.207741 81.380699 -10.072410
v -20.207741 81.380699 -10.072411
vt 0.000000 0.338434
vt 0.000000 0.000000
vt 0.267488 0.000000
vt 0.267488 0.338434
vt 0.534976 0.000000
vt 0.534976 0.338434
vt 0.398592 0.612062
vt 0.398592 0.338434
vt 0.531456 0.338434
vt 0.531456 0.612062
vt 0.132864 0.338434
vt 0.132864 0.676868
vt 0.000000 0.676868
vt 0.265728 0.612062
vt 0.265728 0.338434
vt 0.265728 0.676868
vt 0.265728 0.812782
vt 0.132864 0.812782
vt 0.000000 0.812782
vt 0.112626 0.948695
vt 0.000000 0.948695
vt 0.112626 0.812782
vt 0.225252 0.812782
vt 0.225252 0.948695
vt 0.644083 0.978398
vt 0.531456 0.978398
vt 0.531456 0.842484
vt 0.644083 0.842484
vt 0.756709 0.842484
vt 0.756709 0.978398
vt 0.863617 0.842484
vt 0.863617 0.590460
vt 0.930049 0.590460
vt 0.930049 0.842484
vt 0.867136 0.000000
vt 0.933568 0.000000
vt 0.933568 0.252025
vt 0.867136 0.252025
vt 0.930049 0.978398
vt 0.863617 0.978398
vt 0.664321 0.590460
vt 0.664321 0.842484
vt 0.531456 0.590460
vt 0.332160 0.864086
vt 0.398592 0.864086
vt 0.398592 1.000000
vt 0.332160 1.000000
vt 0.265728 0.864086
vt 0.996481 0.338434
vt 0.996481 0.590459
vt 0.930049 0.338434
vt 0.996481 0.842484
vt 0.465024 1.000000
vt 0.465024 0.864086
vt 0.797185 0.590460
vt 0.797185 0.842484
vt 1.000000 0.000000
vt 1.000000 0.135914
vt 0.933568 0.135914
vt 0.531456 0.864086
vt 0.863617 0.338434
vt 0.797185 0.338434
vt 0.265728 1.000000
vt 0.667840 0.000000
vt 0.667840 0.252025
vt 0.534976 0.252026
vt 0.797185 0.978399
vt 0.800704 0.000000
vt 0.800704 0.252026
vt 0.531456 1.000000
vt 0.664321 0.338434
vt 0.996481 0.978398
vn 0.000000 0.000000 1.000000
vn -0.000000 -0.000000 -1.000000
vn 0.000000 -1.000000 0.000000
vn -1.000000 0.000000 0.000000
vn 0.000000 1.000000 0.000000
vn 1.000000 0.000000 0.000000
s 1
f 1/1/1 2/2/1 3/3/1
f 3/3/1 4/4/1 1/1/1
f 5/3/2 6/5/2 7/6/2
f 7/6/2 8/4/2 5/3/2
f 1/7/3 4/8/3 6/9/3
f 6/9/3 5/10/3 1/7/3
f 4/11/4 3/12/4 7/13/4
f 7/13/4 6/1/4 4/11/4
f 3/14/5 2/15/5 8/8/5
f 8/8/5 7/7/5 3/14/5
f 2/15/6 1/16/6 5/12/6
f 5/12/6 8/11/6 2/15/6
f 9/12/2 10/16/2 11/17/2
f 11/17/2 12/18/2 9/12/2
f 13/19/1 14/13/1 15/12/1
f 15/12/1 16/18/1 13/19/1
f 9/20/3 13/21/3 16/19/3
f 16/19/3 10/22/3 9/20/3
f 10/22/4 16/23/4 15/24/4
f 15/24/4 11/20/4 10/22/4
f 11/25/5 15/26/5 14/27/5
f 14/27/5 12/28/5 11/25/5
f 12/28/6 14/29/6 13/30/6
f 13/30/6 9/25/6 12/28/6
f 17/31/1 18/32/1 19/33/1
f 19/33/1 20/34/1 17/31/1
f 21/35/2 22/36/2 23/37/2
f 23/37/2 24/38/2 21/35/2
f 17/39/3 20/40/3 22/31/3
f 22/31/3 21/34/3 17/39/3
f 20/41/4 19/42/4 23/27/4
f 23/27/4 22/43/4 20/41/4
f 19/44/5 18/45/5 24/46/5
f 24/46/5 23/47/5 19/44/5
f 18/7/6 17/45/6 21/48/6
f 21/48/6 24/14/6 18/7/6
f 25/49/1 26/50/1 27/33/1
f 27/33/1 28/51/1 25/49/1
f 29/33/2 30/50/2 31/52/2
f 31/52/2 32/34/2 29/33/2
f 25/53/3 28/46/3 30/45/3
f 30/45/3 29/54/3 25/53/3
f 28/55/4 27/56/4 31/42/4
f 31/42/4 30/41/4 28/55/4
f 27/36/5 26/57/5 32/58/5
f 32/58/5 31/59/5 27/36/5
f 26/10/6 25/60/6 29/45/6
f 29/45/6 32/7/6 26/10/6
f 33/32/1 34/61/1 35/51/1
f 35/51/1 36/33/1 33/32/1
f 37/62/2 38/61/2 39/32/2
f 39/32/2 40/55/2 37/62/2
f 33/47/3 36/63/3 38/48/3
f 38/48/3 37/44/3 33/47/3
f 36/64/4 35/65/4 39/66/4
f 39/66/4 38/5/4 36/64/4
f 35/40/5 34/67/5 40/56/5
f 40/56/5 39/31/5 35/40/5
f 34/68/6 33/69/6 37/65/6
f 37/65/6 40/64/6 34/68/6
f 41/56/1 42/55/1 43/32/1
f 43/32/1 44/31/1 41/56/1
f 45/68/2 46/35/2 47/38/2
f 47/38/2 48/69/2 45/68/2
f 41/70/3 44/53/3 46/54/3
f 46/54/3 45/60/3 41/70/3
f 44/71/4 43/41/4 47/43/4
f 47/43/4 46/9/4 44/71/4
f 43/72/5 42/39/5 48/34/5
f 48/34/5 47/52/5 43/72/5
f 42/62/6 41/55/6 45/41/6
f 45/41/6 48/71/6 42/62/6
