# Blender v2.75 (sub 0) OBJ File: ''
# www.blender.org
v 1.000000 -1.000000 -1.000000
v 1.000000 -1.000000 1.000000
v -1.000000 -1.000000 1.000000
v -1.000000 -1.000000 -1.000000
v 1.000000 1.000000 -0.999999
v 0.999999 1.000000 1.000001
v -1.000000 1.000000 1.000000
v -1.000000 1.000000 -1.000000
vt 0.499540 0.250879
vt 0.499540 0.499622
vt 0.250796 0.499622
vt 0.499943 0.750083
vt 0.499943 0.999533
vt 0.250493 0.999533
vt 0.750095 0.750057
vt 0.500301 0.750057
vt 0.500301 0.500263
vt 0.497729 0.749959
vt 0.249016 0.749959
vt 0.249016 0.501246
vt 0.249328 0.501160
vt 0.249328 0.750142
vt 0.000346 0.750142
vt 0.749889 0.501042
vt 0.999420 0.501042
vt 0.999420 0.750573
vt 0.250796 0.250879
vt 0.250493 0.750083
vt 0.750095 0.500263
vt 0.497729 0.501246
vt 0.000347 0.501160
vt 0.749889 0.750573
vn 0.000000 -1.000000 0.000000
vn 0.000000 1.000000 0.000000
vn 1.000000 0.000000 0.000000
vn -0.000000 0.000000 1.000000
vn -1.000000 -0.000000 -0.000000
vn 0.000000 0.000000 -1.000000
s off
f 2/1/1 3/2/1 4/3/1
f 8/4/2 7/5/2 6/6/2
f 5/7/3 6/8/3 2/9/3
f 6/10/4 7/11/4 3/12/4
f 3/13/5 7/14/5 8/15/5
f 1/16/6 4/17/6 8/18/6
f 1/19/1 2/1/1 4/3/1
f 5/20/2 8/4/2 6/6/2
f 1/21/3 5/7/3 2/9/3
f 2/22/4 6/10/4 3/12/4
f 4/23/5 3/13/5 8/15/5
f 5/24/6 1/16/6 8/18/6
